<svg xmlns="http://www.w3.org/2000/svg" viewBox="0 0 200 60">
  <defs>
    <linearGradient id="cloudGrad" x1="0%" y1="0%" x2="100%" y2="100%">
      <stop offset="0%" style="stop-color:#1e3a5f"/>
      <stop offset="100%" style="stop-color:#0d2137"/>
    </linearGradient>
    <linearGradient id="cyanGrad" x1="0%" y1="0%" x2="100%" y2="100%">
      <stop offset="0%" style="stop-color:#00d4ff"/>
      <stop offset="100%" style="stop-color:#0099cc"/>
    </linearGradient>
  </defs>
  <!-- Cloud shape -->
  <path d="M45 15 C35 15 28 22 27 30 C20 31 15 37 15 44 C15 52 22 55 30 55 L50 55 C58 55 65 48 65 40 C65 32 58 26 50 26 C52 20 49 15 45 15Z" fill="url(#cloudGrad)" stroke="#00d4ff" stroke-width="2"/>
  <!-- Shield -->
  <path d="M38 28 L38 45 C38 48 42 52 45 54 C48 52 52 48 52 45 L52 28 L45 25 Z" fill="none" stroke="#00d4ff" stroke-width="1.5"/>
  <!-- Lock -->
  <circle cx="45" cy="38" r="4" fill="none" stroke="#00d4ff" stroke-width="1.5"/>
  <path d="M43 38 L43 42 L47 42 L47 38" fill="#00d4ff"/>
  <!-- Curved C -->
  <path d="M25 48 C18 48 12 42 12 35 C12 28 18 22 28 22" fill="none" stroke="url(#cyanGrad)" stroke-width="4" stroke-linecap="round"/>
  <!-- Text -->
  <text x="75" y="42" font-family="Arial, sans-serif" font-size="28" font-weight="bold" fill="url(#cyanGrad)">Ced-IT</text>
</svg>
